<?xml version="1.0" encoding="UTF-8"?><svg id="Layer_1" xmlns="http://www.w3.org/2000/svg" viewBox="0 0 626.28 378.7"><defs><style>.cls-1{fill:#1d1d1b;}.cls-2{fill:none;stroke:#1d1d1b;stroke-miterlimit:10;stroke-width:7px;}</style></defs><line class="cls-2" y1="63.2" x2="150.33" y2="63.2"/><line class="cls-2" x1="54.56" y1="66.1" x2="21.48" y2="99.19"/><line class="cls-2" x1="87.65" y1="99.19" x2="54.56" y2="66.1"/><line class="cls-2" x1="504.54" y1="250.51" x2="575.65" y2="250.51"/><line class="cls-2" x1="540.82" y1="253.41" x2="514.94" y2="298.36"/><line class="cls-2" x1="539.97" y1="253.41" x2="565.85" y2="298.36"/><line class="cls-2" x1="230.43" y1="222.08" x2="144.89" y2="222.08"/><line class="cls-2" x1="188.11" y1="225.5" x2="149.14" y2="264.47"/><line class="cls-2" x1="227.08" y1="264.47" x2="188.11" y2="225.5"/><polygon class="cls-1" points="214.68 100.48 192.02 77.43 187.07 72.48 159.07 100.48 164.02 105.43 186.87 82.57 209.73 105.43 214.68 100.48"/><polygon class="cls-1" points="311.82 28 289.15 4.95 284.2 0 256.2 28 261.15 32.95 284.01 10.09 306.87 32.95 311.82 28"/><polygon class="cls-1" points="311.82 166.92 289.15 143.87 284.2 138.92 256.2 166.92 261.15 171.87 284.01 149.01 306.87 171.87 311.82 166.92"/><line class="cls-2" x1="111.86" y1="7.48" x2="111.86" y2="136.55"/><circle class="cls-2" cx="81.68" cy="136.55" r="30.33"/><circle class="cls-2" cx="186.87" cy="164.84" r="23.22"/><line class="cls-2" x1="112.01" y1="122.28" x2="369.39" y2="122.28"/><line class="cls-2" x1="284.01" y1="24.28" x2="284.01" y2="118.84"/><line class="cls-2" x1="378.52" y1="122.48" x2="436.26" y2="122.48"/><line class="cls-2" x1="382.02" y1="167.69" x2="382.02" y2="122.48"/><line class="cls-2" x1="378.52" y1="167.69" x2="436.26" y2="167.69"/><line class="cls-2" x1="446.26" y1="63.2" x2="446.26" y2="209.27"/><line class="cls-2" x1="470.26" y1="63.2" x2="470.26" y2="378.7"/><line class="cls-2" x1="446.26" y1="146.08" x2="472.93" y2="146.08"/><line class="cls-2" x1="51.35" y1="290.07" x2="241.93" y2="290.07"/><line class="cls-2" x1="187.74" y1="263.41" x2="187.74" y2="286.74"/><line class="cls-2" x1="329.02" y1="199.03" x2="329.02" y2="303.28"/><line class="cls-2" x1="369.39" y1="250.16" x2="332.52" y2="250.16"/><line class="cls-2" x1="496.06" y1="250.16" x2="471.48" y2="250.16"/><line class="cls-2" x1="407.39" y1="331.51" x2="470.26" y2="331.51"/><line class="cls-2" x1="536.2" y1="331.51" x2="626.28" y2="331.51"/><polygon class="cls-1" points="456.79 246.89 378.52 246.89 378.52 253.89 414.15 253.89 414.15 254.16 379.58 302.01 385.25 306.11 418.07 260.69 450.88 306.11 456.55 302.01 421.79 253.89 456.79 253.89 456.79 246.89"/><line class="cls-2" x1="565.28" y1="265.25" x2="594.31" y2="265.25"/><line class="cls-2" x1="596.37" y1="222.08" x2="596.37" y2="317.03"/><line class="cls-2" x1="539.7" y1="303.03" x2="539.7" y2="334.09"/><line class="cls-2" x1="242.57" y1="265.07" x2="287.09" y2="220.55"/><line class="cls-2" x1="283.01" y1="220.55" x2="327.53" y2="265.07"/></svg>