<?xml version="1.0" encoding="utf-8"?>
<!-- Generator: Adobe Illustrator 26.5.0, SVG Export Plug-In . SVG Version: 6.00 Build 0)  -->
<svg version="1.1" id="Layer_1" xmlns="http://www.w3.org/2000/svg" xmlns:xlink="http://www.w3.org/1999/xlink" x="0px" y="0px"
	 viewBox="0 0 629 981" style="enable-background:new 0 0 629 981;" xml:space="preserve">
<style type="text/css">
	.st0{fill:#7C7C7C;stroke:#FFFFFF;stroke-width:2;stroke-linecap:round;stroke-linejoin:round;}
</style>
<g id="1">
	<path id="KOR2495" class="st0" d="M124.6,232.7l1,2.4l-0.8,0.4l-1.4,1l-0.5,0.7l-2.8,0.6l-1.2-0.2l-5.4,2.4l-2,1.8l-1.1,2l-6.9,5.2
		l-1.5-0.3h-2.1l-0.7-2.5l-1.2-0.8l-0.6,0.7l-0.8-1.9l-1-0.2l-1.6,1.7l-1.2-0.6l-1.7-0.4l1-1l-0.3-1.1l-1.7-1.6l-0.5-1.1l0.6-1.5
		l1-0.2l1.3,0.6l7.2-5l5.1-0.6l3.5,0.1l3.2-1.7l1.1-4.5l2.2-0.8l1.9,1.9l2.7,1.2l1.8,0.2l1.3,0.7l1.2,1.6L124.6,232.7L124.6,232.7z
		 M147.3,257.7l-0.4-1.4l-8.3-1l-3.9,4.9l-4-3l1.6-3.7l2.1-3.1l-1.3-2.3l-5.4-2.9l0.3-3.6l-0.5-2.9l1.6-2.7l4.5-1.3l1.4-0.7l0.3-1.7
		l-2.1-0.6l-0.6,1.8l-3.3,0.3l-0.8-2l-0.4-3.6l0.8-4.9l15.3-0.5l9.4,9l-0.1,4.7l1.7,3.9l2.6,1.7l1.5,2.4l-1.5,5l-2.2,4.3l-3.3,2.4
		L147.3,257.7L147.3,257.7z"/>
	<path id="KOR2496" class="st0" d="M575,408.5l-1.6-0.1l-5.3-1.2l-5.1,2.3l-10.9-4.1l1.7-4.7l-0.5-4.4l-1.4-4.9l-0.4-5.5l2.1-5.3
		l1.7-4.9l-1.2-1.5l-1.4-1.3l0.7-4.5l-11.6-0.9l-3.4-1.9l-3.7-1.6l-1.5-3.6l-1.1-4.2l-5.2-2.5l-3.3-4.9l-0.7-6.5l1.1-4.9l2.7-2
		l3-1.1l4.6,1.8l3.8-2.8l-1.6-4.6l-4.9-3l-5.4-1.2l-4.3,2.2l-4.2,1.1l-5.8-2.7l-6.2-1l-2.1,0.8l-1.7-0.2l-1.4-1.8l-1.9-0.8l-4.5,3.5
		l-4.7,1.9L489,324l0.4-3.4l-2.8-1.4l-3-0.7l-2.2-3.9l-4.4-0.4l-4.3,2.1l-2.8,3.5l1,4.9l-0.5,4.5l-0.9,4.2l-4.1-0.3l-4.7-1.1
		l-3.9-1.6l-4.1-2.2l-3.1-2l-3.2-1.4l-4.1-0.5l-4.1-0.8l-4.2-2.7l-3.7-2.9l-3.8,0.1l-3.8,1.2l-3.4,0.6l-2.9,0.2l-1.1-2.6l-3.2-3.3
		l0.3-2.8l-1.6-1.7l-7.5,0.8l-4.8,1.6l-1.4,0.7h-1.5l-2.2-1.3l-1.7-1.9l2.7-4.2l4.6-3.3l1.8-4.2l-2.9-0.8l-9-1.5l-8.8-3.1l-3.7,2.8
		l-3.1,1.7l-3.8-0.8l-3.2,2.4l-5.2,3l-5.2,1.2l-2-2.7v-4.3l-6-6.4l-8.1,2.7l-3,3.7l0.9,9.7l-3.2,2.2l-1.1,1.3l-1.2,1.1l-2.7-1.5
		l-4.8-0.4l-4.9,1.2l1.4-9.6l-16.8,2.3l-16.7,4.6l8.5-15.9l7.1-17.4l9.7-20.8l1.2-4.5l-0.9-4.5l2.1-3.6l2.9-3.6l3.2-1.3l1.6-3.5
		l-1.8-3.1l-2.3-2l-3.8-0.4l-3.9-1.5l-5.3-0.7l-8.9-4.9l-4-1.7l-4-2.6l-4.3-0.7l-4.3,1.4l-3.5-3l0.3-3.3l1.7-3.4l0.6-3.9l0.1-4.1
		l-4.2,1.4l-1.9-2.4l4.6-5.5l-0.8-3.6l-1.2-3.6l0.9-2.7l-0.1-3.3l-0.3-3.1l8.1-5.9l3.2-1.1l1.8-2.8l0.8-8.1l-3.7-5.8l-3.1-0.6
		l-2.9-1.3l-2.2-6l-3.5-0.1l-3.8,0.2l-4-3l-2-5.3l-0.8-9.5l-1.5-4.7l-1.1-1l-1.2,0.3l-0.9,0.8l-1,0.1l-2.7-1.9l-6.6,2.3l-6.1-1.4
		l-2.4-1.5l-2.5-2.3l-0.1-3.8l1.2-3.6l1.6-2.6l-1.1-0.9l-1.3-0.3l-1.3,0.2l-1.1,0.9l-2.1,2.7l-2.4,2.4l-3.6,0.6l-3.1-2.1l-0.6-2
		l-0.3-2l-1.1-0.7l-1.2,1.3l-0.4,2l-0.1,6.6l-2,3.3l-5.8-2.8l-5.3-4.8l-1.9-2l-2,0.3l-1.7-2.6l-1.1-3.3l-1.5-1.7l-1.7-1.4l-1.3-3.2
		l-7.9-5l-3.2-1.6l1-1.1l8.6-7.2l10.1-6.3l10.6-4.4l10.2-1.1l5.1,0.6l19.5-1.7l15,4.5l4.8-0.4l9.3-2.8l30.5-2.7l1.3,0.9l2,2.9l1.9,2
		l2.2,0.5l10.5-2.2l16.6,1l10.8-0.9l10.8-3.8l10.1-6.6l8.4-8.8l3.7-5.3l3.1-5.6l2-6.3l0.7-7.1l-1.3-7l-0.4-3.5l1-2.6l4.3-3.4l9-4.7
		l12.1,24l1.5,6.4l3.7,9.7l14,27.7l10.9,29.1l1.8,3.1l5.6,7.1l2.2,5.9l26.4,37.8l10.2,14.9l12.3,13.6l1.7,1.4l8.2,9.7l0.5,4.1v4.9
		l1,4.2l5.6,3.1l1.6,3.4l4.6,15.1l2.1,3.4l2.5,1.5l2,2.2l7.2,14.2l4.4,5.4l1.5,3l0.5,3.2l1.1,3.1l7.7,8.4l2.4,6.9l2.2,15.1l2.9,8.2
		l8.2,11.4l0.6,2.3l-1,2.3l-1.4,2.2l-1,2.2v1.9l1.1,6.2l1.4,17.7l1.5,8.2l5.2,16.6l0.5,8.2l-1.7,7.5l-3.5,6.9L575,408.5L575,408.5z"
		/>
	<path id="KOR2497" class="st0" d="M211.4,217.4l-1.5,5.7l4.4-0.1l3.7-1.3l3.2-0.1l1.2,2.9l-0.4,3l-2.2,1.1l-2.4,1.6v3.6l1.3,1.5
		L216,239l-1.5,2.6l-4.1,2.4l-4.5,1.1l-4.7,2.3l-1.8-4.1l-3.9,0.9l-4,1.2l-2.7,1.6l-2.9,0.5l-6.8-0.3l-4.7-6.1l-4.6-1.4l-3.1-2
		l-0.8-5.8l-3.2-4.4l-3.7-4.6l2.3-5.1l4.5,0.2l5,3.1l3.8-1.2l3.4-2.1l0.2-3.4l0.9-3.2l7.1-0.7l3.7-4.6l2.2-4.8l3.2-3.3l4.9-1.2
		l5.7,0.4l2.7,4.7l1.1,6.4l1.6,4.4L211.4,217.4L211.4,217.4z"/>
	<path id="KOR2498" class="st0" d="M109,284.7l-1.3,1.6l-1.8,0.4l-1.2-0.9l-1.3,0.1l-1.1-0.6l-0.3-2.5l0.3-2.6l1.3-1.8l2.8-1.5
		l3.6,0.3l1.6,1.1l0.6,2.4l-0.7,0.9l-1.7,0.5l-0.6,1.3L109,284.7L109,284.7z M124.2,277.2l0.6,1.6l1.9,1.1l3,1.2l0.8,0.9l0.8,2.6
		l-0.8,1.8l-8.1,6.5l-3.7,0.4l0.1-1l1.7-2.3l0.2-1.4l-0.7-1.1l2-2.4l0.1-2.4l-0.8-2.9l-1.2-2l-1.2-1.4l0.4-0.4l2.6,1.3l2.2-2
		l0.5,0.2L124.2,277.2L124.2,277.2z M91.9,201.5l-3.2,0.2L78,193.3l1.4-1.2l0.6-1.6l0.9-3.8l1.3-2l0.9-0.7l0.9-0.3l0.6,0.4l0.6,1.4
		l0.5,3.7l1,2l1,1.1l4.1,3.4l1.5,1.8l0.3,1.9L91.9,201.5L91.9,201.5z M77.1,170.9l3,1.8l3.1-0.1l2.9,0.5l1.5,1.6l-1.1,3.6l-2.8,2.4
		l-3.4,0.3l-6.6-1.5l-3.3,1.6h-1.5l-0.6-2.2l0.3-0.7l1.8-5.5l2-1.9l2.2-0.6L77.1,170.9L77.1,170.9z M117.1,208.2l-1.8,4.2l-1.6,1.4
		l-1.2,0.2l-0.9-0.5l-1.7-1.8l-1.2-0.7l-0.8,0.3l-1.3,1l-8.3,0.5l-3.1-1.5l-3.3-4.3l4.9-1.3l1.2-0.8l1.3-2.1l-0.2-0.9l-0.9-0.6
		l-0.8-1.1l-5.6-10.8l-0.4-1.7l0.6-2.1l-0.1-9.5l0.6-2.2l1.6-0.5l3.7-4.4l2.9-0.7l2.5,1.8l2.4,2.8l2.4,2.2l5.1,2.6l2,2l0.8,3.2
		l-0.2,1.7l-0.8,2.7l-0.2,1.2l0.4,1.3l1.4,2.7l0.4,1.5l0.5,7.2l-0.5,1.7l0.8,1.1l1.4,3L117.1,208.2L117.1,208.2z M287.7,306.6
		l-1.1,2.1l-1.3,1.9l-2.5,1.9l-1.7,3.2l-7.6,14.1l-3.9,2.8l-0.9-1.2l-3.1-0.6l-2.5,2.6l-1.3,3.3l-1.9,2.5l-4.1,1.7l-2.5,2.8
		l-1.5,5.8l-5.2,1.8l-6.8,3.3l-7.1,2l-7.4-1l-6.1-5.1l-6.9-3.1l-13.1,5.6H193l-7.5-1.5l2.1-1.6l2.4-1.1l1.7-1.9l1-4.8l-0.3-0.9
		l-1.7-2l0.8-0.8h1.7l2.2-1.3l1.4-0.2l1-0.7l0.5-2.3l-9.5,2.7l-1.4,2l0.5,6.1l-1.2,1.4l-3.7,1.2l-5.2-0.7l-6.2-3.6l-5.6-5.6
		l-2.2-5.3l9.5-1v-1.2l-2.1-1.5l1.7-0.2l1.7,0.1l1.6,0.5l1.3,1.1l-0.6-3.8l-2.2-3.4l-1.6-3.8l1.2-5.3l-1.8-0.8l-1.4,1.8l-0.8,3.2
		L170,321l-0.8,3.5l-1.5,0.8l-1.5-1.5l-3,0.6l-3,0.8l-7.3-2.2v-2.3l-0.7-1.9l0.6-2.7l-0.3-3.4l1.8-3.4l2.2-3l2.5-1.2l2.7-1l4-0.1
		l4.3-1.2l0.9-1.3l0.3-3.7l-1-0.7l-2.2,1.2l-3.3,2.9l-2.1-0.5l-1.5-0.9l-0.8-1.5v-2.4l-3.7,1.9l-3.1,2.2l-5.6,6.1l-1.5,1.2l-1.8,0.6
		h-1.7l-1-1.1V305l1-1.8l2.3-3.3l-4.6,1.1l-1.4-0.5l-0.6-2.7l0.9-2l1.9-1.1l2.2-0.8l1.6-0.9l1.9-2.6l-0.5-0.7l-4.2,0.6l-1.4-0.9
		l-1.1-2.1l-1.1-2.7l-1.2-2.5l0.7-0.2l1.4-1.2l1.2,0.9l1.7-0.1l3.1-0.8l2.5,0.7l2.1,1.3l2.1,0.6l2.4-1.2l-0.2,2.3l0.2,2.1l0.8,1.7
		l1.5,0.7l1.7-0.6l0.7-1.9l0.8-4.3l2.7-4l2.2,0.4l2.5,1.5l3.5-0.6l-0.8-1.6l-1-1.2l-1.2-0.8l-1.5-0.4h-2.2l-1-1.5l-2.3-0.4l-1.9,0.6
		l-1.9-0.1l-3-0.6l-5-1.6l-6.9-5.2l-0.3-2.3l3-4.5l2.1-2.1l5-1.5l3.3-2.4l2.2-4.3l1.5-5l-1.5-2.4l-2.6-1.7l-1.7-3.9l0.1-4.7l-9.4-9
		l-15.3,0.5l-2-4.7l-3-5.1l-1.8-1.8L122,209l-0.6-4l-1.7-6.3l-2.3-16.5l0.6-2.7l2.1-0.4l8.7,3.2l2.8-0.6l2.3-1.1l2.1-0.4l2.1,1.4
		l0.8,2.4l0.3,3.6l-0.2,3.8l-0.9,2.6l-0.1,4.7l4.9,4.1l6.2,2.6l3.8,0.2l-3-3.1l-9.1-6.6l2.6-7.1l0.8-4.2l-0.6-3l-1.5-3.1l-0.3-4.1
		l0.7-4l1.6-3.2l-1.2-1.5l-1.5,0.2l-2.4,1.7l-1.1-17.3l0.8-4.7l1.9-1.4l3-0.4l4-1.5l6.3-5.1l13.6-20.7l2.7-2.8l6.1-4.7l2.6-3.1
		l5.4-13.3l1.9-2.5l3.2,1.6l7.9,5l1.3,3.2l1.7,1.4l1.5,1.7l1.1,3.3l1.7,2.6l2-0.3l1.9,2l5.3,4.8l5.8,2.8l2-3.3l0.1-6.6l0.4-2
		l1.2-1.3l1.1,0.7l0.3,2l0.6,2l3.1,2.1l3.6-0.6l2.4-2.4l2.1-2.7l1.1-0.9l1.3-0.2l1.3,0.3l1.1,0.9l-1.6,2.6l-1.2,3.6l0.1,3.8l2.5,2.3
		l2.4,1.5l6.1,1.4l6.6-2.3l2.7,1.9l1-0.1l0.9-0.8l1.2-0.3l1.1,1l1.5,4.7l0.8,9.5l2,5.3l4,3l3.8-0.2l3.5,0.1l2.2,6l2.9,1.3l3.1,0.6
		l3.7,5.8l-0.8,8.1l-1.8,2.8l-3.2,1.1l-8.1,5.9l0.3,3.1l0.1,3.3l-0.9,2.7l1.2,3.6l0.8,3.6l-4.6,5.5l1.9,2.4l4.2-1.4l-0.1,4.1
		l-0.6,3.9l-1.7,3.4l-0.3,3.3l3.5,3l4.3-1.4l4.3,0.7l4,2.6l4,1.7l8.9,4.9l5.3,0.7l3.9,1.5l3.8,0.4l2.3,2l1.8,3.1l-1.6,3.5l-3.2,1.3
		l-2.9,3.6l-2.1,3.6l0.9,4.5l-1.2,4.5l-9.7,20.8l-7.1,17.4L287.7,306.6L287.7,306.6z M211.4,217.4l-0.1-4.9l-1.6-4.4l-1.1-6.4
		l-2.7-4.7l-5.7-0.4l-4.9,1.2l-3.2,3.3l-2.2,4.8l-3.7,4.6l-7.1,0.7l-0.9,3.2l-0.2,3.4l-3.4,2.1l-3.8,1.2l-5-3.1l-4.5-0.2l-2.3,5.1
		l3.7,4.6l3.2,4.4l0.8,5.8l3.1,2l4.6,1.4l4.7,6.1l6.8,0.3l2.9-0.5l2.7-1.6l4-1.2l3.9-0.9l1.8,4.1l4.7-2.3l4.5-1.1l4.1-2.4l1.5-2.6
		l2.7-3.7l-1.3-1.5v-3.6l2.4-1.6l2.2-1.1l0.4-3l-1.2-2.9l-3.2,0.1l-3.7,1.3l-4.4,0.1L211.4,217.4L211.4,217.4z"/>
</g>
<g id="2">
	<path id="KOR2504" class="st0" d="M469.6,556.7l-2.5,2.6l-1.1-0.4l-1.5,0.1v1.3l-0.2,1.7l-1.5,3.9v1.2l-0.4,1.9l-3.6,2.1l-9.1-2.4
		l-5.1-0.5l-2.3,1.8l-2.2,4l-1.3,1l-1.4-1.2l-2-1.3l-2.8-2.3l-1.8-3.6l-2.3-2.3l-2.5-0.9l-0.9-3.6l2.1-3.1h2.4l2.6-0.4l0.6-1.9
		l0.3-1.9l-1.4-0.5l-1.5-0.3l1.7-3.8l2.8-3l-1-8.9l7.4-6.2l10.1-1.4l8.3-0.5l6.4,4.6l2,3.5l-0.1,1.6l-0.8,1.3l0.1,4.9l1.3,2l1.7,1.4
		l0.3,3.1l0.1,3.3L469.6,556.7L469.6,556.7z"/>
	<path id="KOR2505" class="st0" d="M392.8,795.2h0.7l3-1.4l0.4,0.4l-0.3,1l-1.5,1.9l-1.7,0.6l-1.5-0.3l-1.2,0.2l-1.7,0.8l-0.8,0.8
		l-1,0.2l-0.1-0.7l0.5-1.3l-0.1-1l-0.7-0.7l-1.3-0.6l0.5-1.9v-1l0.7-0.6l1-0.3l5.1,2.7L392.8,795.2L392.8,795.2z M409.8,758.4
		l1.1,0.6l1.5-0.6l2.4-0.7l2.8-0.1l1.6,1.5l0.4,2.5l-0.9,1.5l0.6,0.9l-0.7,1.2l-1.6-0.6l-0.6,0.8l1.3,0.3l1.3,1.1l-0.6,1.1l-1.6,2
		l-2.6,0.1l-1.2-1.5l-0.6-1.5l-1.3-0.1l0.3-1.2l-0.4-1.3l-2.1-0.3l-0.7-0.6l1.5-1.2l0.3-1.4l-1.5-1.3l-2.9-0.9l-1.8,0.5h-1.1
		l-0.3-1.3l1.3-1.4l1.8-0.5l2.5,1L409.8,758.4z M388.1,762.9l-0.5,0.5l-2.4-0.8l-1.8-1.2l-1-1.6l0.2-1l1.1-1.8l2.1-1.6l2,0.5
		l2.4,2.6l0.9,1.5l-0.7,1.1h-1.7l-0.8,0.4L388.1,762.9L388.1,762.9z M352,749.5l0.8,0.6l0.9-2.1l1.9-3l1.5-0.2l0.5,1.3l1.6,1.3
		l0.3,2.3l0.9,3.2l1.6,1.8l0.9,1.3l-1.7,0.4l-7.2-1.9l-3.9,1.3l-2.3-0.3l-2.3-1.4l-1.4-2.8l1.1-3l2.1-2.8l1.4-2.6l1.5-1.9l2.5-0.6
		l0.8,2.1l-1.1,3.1l-0.6,2.1L352,749.5L352,749.5z M341.9,758.1l1.9,3.4l3.1-0.5l3.9-1.6l3.6-0.7l5.4,0.9l1.1,0.4l0.8,2.2l-0.5,1.9
		l-0.9,2l-0.4,2.5l0.4,4l-0.1,2.3l-0.9,1l-1.3,0.7l1.4,3.9l-0.7,2l-2.4,0.4l-2.4-1.4l-2.5-1.1l-2.9,1.4l-2.6,0.3l-1.5-3.7l-1.8-7.8
		l-2.6-1.4l-2.1,1.5l-1.4,3.2l-0.5,4l-1,1.7l-2.2,0.1l-2.4-0.8l-1.4-1l-1-1.7l-0.3-3.1l-0.3-2.5l-4.4-14.2l-0.6-3.5l0.4-3.3l1.9-3.5
		l1.2-0.9l1.2-0.2l1-0.7l0.7-4.2l0.9-1.3l2.6-2l2.1-1l2.4,0.8l2.1,1.8l1.2,2.5l-0.2,2.5l-1.4,2.4l-3.6,3.8l0.7,1.3l0.7,3.4l0.9,1.7
		l1.3,1L341.9,758.1L341.9,758.1z M464.4,733l1,1.8l0.7,1.9l-0.1,2.6l-0.6,2.3l-2.5,6.5l3.2-1.1l1.5-1.1l0.5,0.4l0.2,3.3l-0.2,2.2
		l-0.7,2.5l-1.4,1.3l-2.1-0.9l0.8,2.6l2.1,4.4l0.4,2.9l-1.2,0.5l-2.8-0.9l-2.9-1.6l-1.8-1.3L458,764l-0.5,1.4l-2.8,3.2l-0.9,2.6
		l1.9,1.4l2.6,1.1l1.3,1.5l-2.4,2.1l-11.5,3.6l-3.4,0.2l5.4-3.9l-2.3-1.1l-0.8-1.7l0.1-2.3l0.8-2.8l-4.9,2.5l-1.5-1l-0.7-2.2
		l0.1-2.2l1-1l4-0.8l1.1-2.2l0.1-3l0.8-3.4l-2.2-1.3l-1.6,2l-5.7,2.5l-2.5,2.1l-1.8-2.8l-2.2-2.5l-1.9-2.8l-0.5-3.6l1.1-2.3l2-2
		l2.4-1.6l2.1-0.9l5.9-1.2h1.7l2.6,1.1l2,1.4l2.2,1.1l2.9,0.2v-1.2l-2.9-2l-1.7-2.9l-0.8-3.3l-0.1-3l2.1,0.2l11-6.3l-1.9-3.6
		l0.9-3.5l2.5-1.9l2.8,1.1l0.7,1.6v1.8l-1,7.2l0.1,1.2L464.4,733L464.4,733z M481.5,725.4l-0.8,0.3l-0.4-0.8l-0.8-3.4l-1.2-1.3
		l-0.4-1l0.2-1.3l-0.6-1.6l-0.8-1.6l0.4-1.4l1.7-0.9l1.8-0.2l1.6,0.5l1.1,2.4l-0.1,4.9l-0.7,4L481.5,725.4L481.5,725.4z
		 M509.4,611.8l0.7,7.7l-4,8l2.4,4.8l9.8,1.5l4.1,3.2l6.8,7.8l8.1,4.5l3.7,2.8l1,5.4l3.5,3.4l4.5,1.6l0.6,0.6l-0.7,2.6l-0.3,3.5
		l-0.9,1.9l-1.1,1.6l0.9,2.6v1.1l-1.7,3.6l-2.6,5.4l-2.8,3.4l-1.8,3.8l-0.3-0.7l-3.2-3.3l-2.8-3.7l-3.7-2.9l-2.8-4l-0.9-4.2l-3.1-2
		l-4-0.2l-3.7,1.5l-3,2.2l-2.3,2.8l-1.6,11.5l-2.3,3.4l-2.4,3l-1.3,2.4l-0.8-0.7l-1.4,2.2l-4.8,8.5l-2.2,0.1l-0.2-3.9l0.2-3.7
		l-1.1-0.1l-1.3,3l-1.2,4.7l-3.9-0.5l-10.4,0.2l-0.6-3.6l-1.1-1.9l-1.4,5.4l-1.6,0.8l-3.7-1.7L465,704l-1.9-0.2l-2.4,1.8v-8.4
		l-0.7-0.7l-1.3,0.5l-1.2,1.8l-0.1,3l-2.5-2L453,697l-2.2-1.8l-3.2,1.3l0.7-2.7l-1.3-3.9l0.6-1.5l-1.6-5l-0.9-0.6l-1.8,1.7l-2,3.1
		v2.1l2,4.2l1.1,5.1l0.7,1.8l1.3,2.3l2.7,3.6l0.4,1.8l-0.8,2.5l1.3,0.2l3,1.2l-1.4,0.9l-1.3,0.4H447l-1.6-0.4l-0.5-1l-0.1-1.3
		l-0.5-1.3l-1.5-1.6l-1.1-0.9l-8.6-3l-2.4-0.1l-5.2,1l-1.4,0.7l0.1,1.3l1.8,2.6l-2.9,0.6l-5.5,2.8l-6.2,1.7l-0.8,2.4l-0.3,2.7
		l-1.7,1.7v1.3l15.8-8.4l2.7-0.2l0.5,3.4l1,2.5l0.3,2.3l-1.3,2.5l-2,1.2l-3.1,0.5l-3.1-0.2l-2-0.8l-1.1,1.9l0.7,0.9l1.5,0.8l1,1.7
		l0.2,2.4l-0.2,4.1l-1.1,7.9l1.4,1.3l1.4-0.4l1.1-1.6l0.5-1.9l2.1,2.6l-2.2,3.9l-4,5.2l-3.5,1.1l-4.8-0.3l0.1-3h3.1l1.3-0.3l0.8-1.2
		l-9.9-1.2l-2-0.8l-2.3-3.1l-0.3-1.6l1.6-1l3.7-1.5l-3.6-7.2l-2.6,2.6l-2.6,5l-3.7,0.2l-3.3-4.5l-1.8-1.1l-3.6-0.4l-1.6,1l-0.8,2.3
		l-0.4,3l0.1,2.9l-3.3-0.6l-7.4,0.3l-2.9-1.6l-0.3-1l-0.1-2.9l-0.1-0.7l-0.8-0.2L366,739l-2.3-0.5l-3.7-0.3l-1.3-0.7l-0.8-1.6
		l0.1-1.5l0.7-2.8l-0.3-14.3l0.3-2.3l1.2-2.5l0.7-1.8l0.2-2.4l-2.5,3l-2,3.4l-2.5,2.6l-3.8,0.3l2.9,6.9l-2,1.3l-4.3-0.1l-4.1,2.6
		l-1.6-4.6l-1-1.9l-1.8-1.4l-0.5,6.2l-1.7,5l-3.3,2.9l-4.2,0.4l-3.2-1L324,734l-1,0.9l-2.4-1.9l-1.6-0.5l-0.4-0.8v-3.6l-2.1-5.3
		l-9.9-10.7l-1.7-3.6l-1.4-4.1l-3.5-3.7l-3.9-2.8L294,694l-0.7-10.3l-1.6-5l-3.2-3.8l0.8-4.2l3.3-3.4l0.3-4.8l1-5.2l6.6-7.9l1-5.4
		l-2.3-1.5l-1.6-3.7l0.3-4.9l-1.8-4.6l-0.3-2.5l-0.6-2.1l-4-1.7l0.1-4.9l2.2-4.6l1.4-6l1.8-5.9l2.5-4.6l2-4.4l0.4-6l1.8-5.1l3.6-3.2
		l3.4-3.6l3-6.4l1.6-1l2.1,0.2l3.9-1.2l7.9-4.2l1.5-4.1l5.8-6.2l1.3,4.3l3.2,1.9l2.9,2.3l0.2,1.6l0.6,1.6l2.6,1l4.8,0.4l2,1.7
		l2.6,1.7l4.5,0.4h4.5l4.1,1.3l3,3.3l2.1,4l3.5,2.5l0.9,1.8l0.6,1.7l2.4,1.5l2.1,2.5l-0.1,4.6l-1.9,4.4l2.5,9l9.8,0.4l4.7-0.6
		l4.6,0.7l4.3,2.1l4,3l4.5,0.9l8.5-4.3l4.3,0.9l3.9-5.6l3.7-2.9l1.3,10.8l4,4.9l4.9,3.1l5.8-0.6l5.9-1.1l5.2,1.6l4.9,2.6l5.9,0.2
		l5.2-4.1l2.2-0.8l2.3-0.3l2.2-1.9l1.8-2.4l5.7-2.3l6.1,1.5l4.7,2.2L509.4,611.8L509.4,611.8z"/>
	<path id="KOR2507" class="st0" d="M523.4,712.9l-1.3,1.6l-1-0.8l-1.1-1.4l-3-1.7l-1.5-1.7l0.1-2.4l1.2-1.2l1.6,0.1l1.5,2.1l1.4,1.5
		l1.1,0.6l-1,0.8l-0.2,1.4L523.4,712.9L523.4,712.9z M539.6,692.6l-0.8,1.5l-4.2-0.1l-2.2,0.4l-1.7-0.1l-1.7,0.8l-1.9,0.2L527,698
		l1.2,1.9l0.2,2.3l-0.8,2.5l-3.5,1.7l-4.6-4l-1.3-1.5l-4.2,4.4l-1.9,3.6l-0.6,3.7l-1.2,0.9l-0.8-1.9l-1.9-2l0.5,5.7h-1.2l-0.5-1.3
		l-0.7-0.3l-3.1,2.1l-1.1-1.3l-1.3-4.4l0.6-3.9l1.2-5l0.2-2.8l1.3-2.4l2.4-3l2.3-3.4l1.6-11.5l2.3-2.8l3-2.2l3.7-1.5l4,0.2l3.1,2
		l0.9,4.2l2.8,4l3.7,2.9l2.8,3.7l3.2,3.3L539.6,692.6L539.6,692.6z"/>
	<path id="KOR2508" class="st0" d="M580.7,605.7l1.3,2.2l-0.6,4.2l-0.3,5l-1.1,7.6l-1.6,3.2l-2.6,3.5l-2.4,1.3l-1-3.4l-1-4.5l-2-3.3
		l-2.2-0.6l-1.3,3.8l2.1,0.5l1.3,1.6l0.6,2.4l0.2,2.8l-0.7,2.6l-1.6,0.6l-1.8,0.2l-1.3,1.2l0.2,1.4l0.2,3.6l0.7,3.8l-2.8,4.8
		l1.3,1.8l1,1.1l-0.2,2.6l-3.2,1.1l-3.1,1.8l-4.4,4.4l-3.7-0.1l-0.1,0.2l-0.6-0.6l-4.5-1.6l-3.5-3.4l-1-5.4l-3.7-2.8l-8.1-4.5
		l-6.8-7.8l-4.1-3.2l-9.8-1.5l-2.4-4.8l4-8l-0.7-7.7l3.8-3.1l4.1-2.4h2.4l1-2l-1.5-2.5l-0.8-2.7l5.3-4.1l6.7-2.4l5.5-0.8l5.3,1.1
		l5.6,2.4l1.4,2.4l0.1,2.9l0.4,2.6l2,1.4l2.6,0.7l14.8-2.6L580.7,605.7L580.7,605.7L580.7,605.7z"/>
	<path id="KOR2509" class="st0" d="M575,408.5l0.8,8.1l2.2,8.1l0.8,8.1l-0.9,16.8l-1,3.6l-4.9,6l-1.9,3.3l-0.8,3.9l-0.7,23.7
		l0.5,3.2l1,1.8l1,0.7l0.9,1l0.9,6.7l1.2,5.1l1.3,0.9l0.8,1.1l-0.6,3.1l-1.3,1.7l-1.6,0.8l-1.6,0.5l-2.6,2.2l-0.2,2.7l3.4,3.1
		l2.4,2.7l2.5,3.1l3.2,0.5l4.1-3.2l10-11l2-3.3l2.6,2.1l0.6,3.4l1.1,3.5l0.8,3.9l-2.5,3.9l-5.7,11.3l-0.4,5.1l-1.7,13.4l-4.1,11.6
		l0.2,7.3l-4.2,12.6l-3.1,6.1l-1.3,3.1l1.3,3.4l1.2,1.5h-0.1l-12.5-3l-14.8,2.6l-2.6-0.7l-2-1.4l-0.4-2.6l-0.1-2.9l-1.4-2.4
		l-5.6-2.4l-5.3-1.1l-5.5,0.8l-6.7,2.4l-5.3,4.1l0.8,2.7l1.5,2.5l-1,2h-2.4l-4.1,2.4l-3.8,3.1l-4.4,1.5l-4.7-2.2l-6.1-1.5l-5.7,2.3
		l-1.8,2.4l-2.2,1.9l-2.3,0.3l-2.2,0.8l-5.2,4.1l-5.9-0.2l-4.9-2.6l-5.2-1.6l-5.9,1.1l-5.8,0.6l-4.9-3.1l-4-4.9l-1.3-10.8l-3.7,2.9
		l-3.9,5.6l-4.3-0.9l-8.5,4.3l-4.5-0.9l-4-3l-4.3-2.1l-4.6-0.7l-4.7,0.6l-9.8-0.4l-2.5-9l1.9-4.4l0.1-4.6l-2.1-2.5l-2.4-1.5
		l-0.6-1.7l-0.9-1.8l-3.5-2.5l-2.1-4l-3-3.3l-4.1-1.3h-4.5l-4.5-0.4l-2.6-1.7l-2-1.7l-4.8-0.4l-2.6-1l-0.6-1.6l-0.2-1.6l-2.9-2.3
		l-3.2-1.9l-1.3-4.3l0.8-12.5l-6.5-11.1l3.8-1.8l4-1.4l2.4-4.8l1.4-5l1.2-2.2l1.5-1.8l0.4-3.3l-0.1-2.6l-0.9-5.3l3.9-3.3l3.8,0.7
		l3.3,0.2l-1.8-10.2l-3.5-2.7l-8.1,2l-3.1-1.5l-4.5-3.7l-3.8-1.3l-6.4,1.5l-0.9-9.3l3.5-3.1l2.3-4.5l-1.8-3.1l-1-3.4l1-4.7l0.6-10.7
		l1.6-4.5l2.8-2.8l-7.7-11.3l-6.2-1.1l-1.8-4.5l2.4-1.1l2.3-0.4l2.3-2.5l3.5-4.8l0.9-2l-0.1-1.8l0.4-2.4l4.9-3.3l5.6-2.6l3.4-5.2
		l6,2.7l11.3,1.7l-2.3-4.4l-3.1-3.9l1.1-4.1l2-4.3l1.9-3.2l2.5,1.6l3.2-0.2l2.6-3.5l2.7-1.8l2.5,1.7l4.9,1.7l4.6,0.4l1.1-3.3
		l0.8-3.1l1.6-2.6l2.1-2l2,2.3l2.7,1.9l3.7,3.2l2.4,4.8l5.6,1.8l13.3-5.5l2.3-7.8l-2.1-1.9l-1.1-2l2-3.7l1.7-3.7l3.4-5l4.9-3.5
		l1.4-2.5l2-1.6l3.2-1.1l2.7-2.5l4-3.4l3.7-3.9l1.5-0.9l1.9,0.7l2.1-1.3l1.9-2.2l4.1,2.2l3.9,1.6l4.7,1.1l4.1,0.3l0.9-4.2l0.5-4.5
		l-1-4.9l2.8-3.5l4.3-2.1l4.4,0.4l2.2,3.9l3,0.7l2.8,1.4L489,324l0.4,3.5l4.7-1.9l4.5-3.5l1.9,0.8l1.4,1.8l1.7,0.2l2.1-0.8l6.2,1
		l5.8,2.7l4.2-1.1l4.3-2.2l5.4,1.2l4.9,3l1.6,4.6l-3.8,2.8l-4.6-1.8l-3,1.1l-2.7,2l-1.1,4.9l0.7,6.5l3.3,4.9l5.2,2.5l1.1,4.2
		l1.5,3.6l3.7,1.6l3.4,1.9l11.6,0.9l-0.7,4.5l1.4,1.3l1.2,1.5l-1.7,4.9l-2.1,5.3l0.4,5.5l1.4,4.9l0.5,4.4l-1.7,4.7l10.9,4.1l5.1-2.3
		l5.3,1.2L575,408.5L575,408.5z M469.6,556.7l0.9-3.1l-0.1-3.3l-0.3-3.1l-1.7-1.4l-1.3-2l-0.1-4.9l0.8-1.3l0.1-1.6l-2-3.5l-6.4-4.6
		l-8.3,0.5l-10.1,1.4l-7.4,6.2l1,8.9l-2.8,3l-1.7,3.8l1.5,0.3l1.4,0.5l-0.3,1.9l-0.6,1.9l-2.6,0.4h-2.4l-2.1,3.1l0.9,3.6l2.5,0.9
		l2.3,2.3l1.8,3.6l2.8,2.3l2,1.3l1.4,1.2l1.3-1l2.2-4l2.3-1.8l5.1,0.5l9.1,2.4l3.6-2.1l0.4-1.9v-1.2l1.5-3.9l0.2-1.7V559l1.5-0.1
		l1.1,0.4L469.6,556.7L469.6,556.7z M624.4,410.2l-3,1.6l-4-0.8l-3.9-2.4l-2.6-3.1l-0.9-4.1l1.4-3l2.8-1.9l5.6-1l3.8-1.4l1.9-0.4
		l2.7,2.1l-0.2,5l-1.7,5.7L624.4,410.2L624.4,410.2z"/>
</g>
<g id="3">
	<path id="KOR2499" class="st0" d="M82,604.6l0.3,1.1l-0.6,1.5l-2.9,2.5l-1.9,2.2l-1.8,1.4l-0.9,0.2l-0.7-0.7l-0.5-1.3l0.3-1.2
		l1.7-0.9l-1-0.8l1.2-1l0.6-0.8l1.5-0.4l-0.2-1.1l2.4,0.4l1.8-1.7L82,604.6z M289.6,523.9l1.3,1.6l1.5,1.4l1.3-0.3l1-1.4l2.7,1.6
		l2.4,2.8l7.1,2.4l1.4,1.8l2.6,0.7l5.1-3.1l5.8-2.6l2.3,2.2l2.3,1.2l2.1-1.8l2-2.2l6.5,11.1l-0.8,12.5l-5.8,6.2l-1.5,4.1l-7.9,4.2
		l-3.9,1.2l-2.1-0.2l-1.6,1l-3,6.4l-3.4,3.6l-3.6,3.2l-1.8,5.1l-0.4,6l-2,4.4l-2.5,4.6l-1.8,5.9l-1.4,6l-2.2,4.6l-0.1,4.9l4,1.7
		l0.6,2.1l0.3,2.5l1.8,4.6l-0.3,4.9l1.6,3.7l2.3,1.5l-1,5.4l-6.6,7.9l-1,5.2l-0.3,4.8l-3.3,3.4l-9-7.3l-10.1-3.7l-5.8,3.2l-4.6,5
		l-4.9,0.7h-5.3l-5.7,0.8l-5.9-0.1l-2.7-1.6l-2.4-1.9l-2.7,0.7h-3.3l-4.8,0.8l-4.5,2.7l-5.9-0.9l-3.8-4l0.2-6.4l-3.3-3.7l-0.9-3.6
		l1.4-5.6l-3.2-4.9l-4.7,0.3l-1.1,2l-1.6,1.5l-1,2.6l-0.4,2.7l-4.8,0.1L181,640l-4.8-4l-2.8-1.1l-2.8-0.2l-2.7,3.1l-5.3-0.5l-4,3.5
		v2.7l0.1,2.6l-1.4,2.2l-2,1.5l0.1,2l0.3,2l-1.3,2.8l-2.1,1.8l-2.6,1.3l-2.7,0.7l-2.3,1.4l-2.1,1.6l-5.3,0.8l-5.1,1.8l-4.7,1.2
		l-3.9-1.3l0.2-5.3l1-5.2l0.9-7.1l-4.5-1.2l-15.4,4.3l-3.3,1l-2.2-2.5l-0.7-2l1.1-4.6l2.7-5.7l4.3-10l3.6-5.3l5.2-1.8l5.9-1.2l5-0.3
		l2.3-1.9l2.3-3.2l3.1-0.8l2.8,3.2l2.9,3.6l2.1,0.7l-2-7.3l-1.5-3.3l-2.4-1.4l-22.4,3.7l-7.8-4.9l0.6-7.3l3.7-1.9l3.2-3.2l3-3.4
		l4.7-2.8l5.9-3.2l4.4-6.2l0.7-5.8l4.2-2.6l1-0.8l5.6-0.6l5.6,0.7l3.5,2.7l2.5,0.6l1.7,3l0.7-1.6l0.5-2.2l0.2-2.3l-3.5-2.8l-3.1-1.5
		l-3.4-2.3l-2.8-2.1l-1.4-0.8l0.4-1.7l1.3-1.8l1.3-1.1l1.4-0.3l8.9,0.6l1.9-0.2l1.4-0.7l1-1.8l0.4-1.4l0.7-1l2.2-0.4l0.7-0.6
		l-0.8-1.5l-1.7-1.4l-1.9-0.7l-0.5,0.4l-11.6,4.7l-3.9,0.2l-7.7-0.5l-7.5-0.6l-0.1-3.4l-0.5-4.6l-1.5-1.3l-4.7-1.6l-6.9,1.1
		l-0.7-5.9l14.3-1.6l7.8-1l7.9-0.4l2.6-1.6l2.7,0.8l3.3-1.7l5.8-4.4l7.4-3l3.2-2.2l0.3-2.8l-9.3,2.8l7.1-8.8l7.6-0.8l8.9-1.9
		l16.4-5.2l5.8,1.2l-1.4,8.6l3.4,5.3l4.6-0.9l4.5-1.7l8.7-1.7l2.3-0.8l2.2-1l3.3-0.7l2.2-3.3l2.6-2.7l5.1,4.5l7.1,12.8l5.2,2.6
		l2.1,0.6l0.9,1.9l-1.1,2.2l0.6,1.6l9.2,1.2l3.4-0.8l4.7-0.2l4.7-1.3l3.8-3.4L289.6,523.9L289.6,523.9z"/>
	<path id="KOR2500" class="st0" d="M181.2,674.9l8.1,3.1l3.2,8.9l-6.2,8.3l-9.8-1.6l-8.6-5.2l-4.3-9.5l3.4-3.2l5.7,1.5l4.1-1
		L181.2,674.9L181.2,674.9z"/>
	<path id="KOR2506" class="st0" d="M87.6,924.7l-0.6,0.7l0.3,1l-0.7,0.5h-1.5l-0.3,1.3v1.2l-1.1-0.2l-2.4-4l1.9-0.4l1.5,0.5
		L87.6,924.7L87.6,924.7z M181.4,921.4l-3.6,0.6l-0.4-3l1.3-0.8l1.2,0.2L181.4,921.4z M241.1,905.2l1,0.5l1-0.1l0.4,2.4l0.7,0.4
		l0.4,1.3l-0.7,0.4l-1.9-0.8l-0.9-1.4l-0.9-1.8l0.2-1.2L241.1,905.2L241.1,905.2z M238.4,904.7l0.4,0.8l-0.6,1.8l0.3,1.9l2,3.4
		l0.9,0.8l1.2,0.3l0.4,0.7l-0.2,0.9l-2.2-1.1l-2.2-0.5l-0.9-1.9l-0.4-1.6l-1.1-1l-0.3-1.3l0.2-2.5l1.1,0.1L238.4,904.7L238.4,904.7z
		 M129,897.5l-3.6-0.5l1-1.2l-0.5-1.1l0.5-0.5l1.1,0.2l1,1.6L129,897.5z M123.2,884.2l1,0.1l1.3-0.4h1.8l2.2,0.9l1.3,1.6l-0.3,0.9
		l-1.3-0.7l-0.2,0.7l-2.1-1h-1.5l-0.8,0.9l-0.6,1l-1.7,1.2l-1.6,1.4l-2.4,1.4l-3-0.1l-1.7-2.2l-0.1-2.9l1.4-2.9l2.8-1.9h2.4
		L123.2,884.2L123.2,884.2z M138.7,893.7l-1.6,0.4l-0.8-0.5l-0.3-0.9l-1.6-0.8l-0.3-2.5l1-4.5l0.3-2.4l-1-1l-0.3-0.9l1.3-1.2
		l0.1-0.7h1.3l2.7,1.4l0.4,1.9l-1.5,1.3l-0.3,1.4l1.6,2.4l0.6,0.4l0.6,0.9l-1.2,0.7l-0.2,1.1v2L138.7,893.7L138.7,893.7z
		 M153.9,881.3l-0.4,1.3l-1-1.6l-0.9-0.8l0.4-1.5l-0.1-1l2.3-1.9l1,2.6L155,880L153.9,881.3L153.9,881.3z M178.9,884.5l-1,1.8
		l-1.8,1l-2.4,0.2l-1.7-0.9l-1.4-1.3l-1.1,0.1l-0.5,1l-0.6-0.4l-0.7-2.9l1-2l0.3-1.8l0.6-1.5l1.1-1.1l2.3-1.1l2.7,0.7l1.6,2.3
		l2.4,2.5l-0.4,2.4L178.9,884.5z M126.6,882.2l-0.8,0.6l-2.4-0.6l-1.3-1.2l-0.3-0.8l-1.4-0.4l-0.2-0.6l1.3-3.1l-0.1-1.5l0.9-0.7
		l-0.9-1.9l0.5-0.4l2.5,1l3.3,0.6l2.5,1.5l0.7,0.9l0.1,1.7l-1.1,0.9l-0.5,2.2l-2.3,0.1l-1.3,0.3L126.6,882.2L126.6,882.2z
		 M26.3,870.2l-1.7,1.8l-1.2,0.4H22v-0.9l0.6-1.7l0.8-0.7L26.3,870.2L26.3,870.2z M232.9,874.9l-0.4,1l-2.9-0.6l-2.8,0.7l1.3-4.1
		l1.6-1.5l0.5-1l1.6-0.9l0.7,0.1l0.7,1.7l-0.2,2.1l-0.9,1.6L232.9,874.9L232.9,874.9z M130.2,868.4l1.4,0.6l0.8,1.6l-0.8-0.1l-1.1,1
		l-0.7-0.2l-1.7,0.5l-1-1.6l1.3-1.2L130.2,868.4L130.2,868.4z M41.9,867.8l0.9,0.6l0.6-0.2l0.2,2l-1.4,2.9l-1.1-0.4l-0.9-1l-0.8,1.8
		l-0.6-1.4l-1.8-0.9l1.1-1l1.4,0.2l1-0.2l1-0.8l-0.1-1L41.9,867.8L41.9,867.8z M21.5,866.9l0.2,2.4l-0.4,0.5l-0.6-1.5l-1.2,0.4
		l-0.5,1.1l-1.7-1.1l1.3-1.7l1.5-0.5L21.5,866.9L21.5,866.9z M276.8,866l-0.7,0.5l-1.3-1.4l1.3-0.6l0.7,0.2V866z M122.8,861.9
		l0.9,0.8l-2.1,1.1l-1.5-0.3l-1.4,0.2v-1.8l1.5,0.5L122.8,861.9z M254.8,862.3l-1.5,0.9l-0.5-3.1l2.2-0.1L254.8,862.3L254.8,862.3z
		 M247.2,859.8l0.6,1.3l1.9-0.8l0.6,0.8l-0.7,0.5l-0.4,1l-2.4,2.5L247.2,859.8z M38.6,856.2l5.5,1.1l2.3-0.4l1,0.6l-0.1,2.1l0.2,1.4
		l-0.7,1.1l-1.6,0.2l-0.9,0.7l-0.6-0.3l-0.7-1l-0.8,0.9l-1,0.2l-3.3-1.4l-1.1-1.6l-0.1-1l0.7-0.9v-1L38.6,856.2L38.6,856.2z
		 M189,857.6l-1.2,0.5l-1.1-0.1l-0.5-0.8l-0.8-0.5l-0.8-0.9l0.1-1.7l0.5-1.2l2.1-1.2l3.9-0.1l2.5,1.3l0.1,1.3l-0.8,1.1l-3.1,2.3
		L189,857.6L189,857.6z M32.8,851l2.1,0.9l1.3-0.8l3,0.4l3.2,1.8l0.3,1.1l-0.8,0.3l-3.7-1l-3.2,0.6l-2.2-0.5l-0.7-2.3L32.8,851
		L32.8,851z M108.5,851.9l-0.7,0.5l-0.9-1.2l0.2-1.1l1.6,0.7L108.5,851.9z M166.8,849.4l1.2,0.3l1.3-0.2l1.8,0.2l2.2,0.6l1.4,0.8
		l-0.3,1.4l-0.9,1.1l-0.4,2l-1,1.1l-1.3-0.3l-1.5,0.3l-1.5,1.4l-1.4,0.3l-0.8-1.1l-0.3-1.5l-0.9-1.2l-1.2-0.5l-1.6,0.2l-1.9,0.7
		h-1.5l-1.2-0.7l-3.5-1.6l-0.2-0.6l1.6-0.2l1.6-0.5l1.2-0.7l1.3,0.2l1.4,0.7l1.8-0.7l2.1-1.8l1.6-0.4L166.8,849.4L166.8,849.4z
		 M198.9,847.9l1.2,0.6l2.2-0.7l1.6-0.2l0.7,0.7l2.3,3.5L206,852l-1.4-0.7l-1.5-0.4l-1.2,0.5l1.4,1.1l-1.1,1.1l-2.8,2.2l-1.6,0.7
		l-0.2-1.7l0.8-1.2l1-0.6l-0.6-0.8l-3.4-0.7l0.4-0.8l-0.4-0.9l-1-0.7l-2.7-0.2l-1-0.4l-0.1-0.6l1.2-0.3l0.9-0.6l1.5-1.8l1.9-1.6
		l1.2,1.1l1,1.5L198.9,847.9L198.9,847.9z M151.4,854.4l2.9,2.8l0.3,1.2l0.9,2.2l-0.6,0.5l-1.5-0.4l-2.7-1.4l-0.6,0.2l-0.2,1.1
		l-0.7,0.4l-1.4-0.6l-2.4-0.6l-3-1v-1.2l1.4-1.2l-0.3-1.4l-1.4-0.3l-1.7,0.4l-2-0.6l-1.9-1.2l-1.1-1.4l-0.4-2.1l-0.2-2.4l0.1-2.4
		l0.7-2.4l1.2-1.9l1.7-0.8l3.7-0.5l1.8,0.6l1.7,1.2l1.9,2.2l1.5,3.7l0.4,3l0.5,1.5l0.9,1.1L151.4,854.4L151.4,854.4z M183.1,839
		l-0.8,3.1l-0.6,0.6l0.6,2.1l-1.2,1.2h-1.3l-0.7,1.1l-1,0.8l-1.2,0.5l-2-0.6l-1.1-0.9l-0.8-1.6l0.4-1.9l-0.3-0.7l-1,0.6l-1,1.2
		l-0.7,0.1l0.1-5.1l-0.6-0.8l1.1-0.3l1.1,0.8l3.6,0.2l1.3,0.3l1,0.9l1.4,0.4l1.3-0.1l1.1-1.3l0.7-1.8l0.5-0.2L183.1,839z
		 M234.4,843.4l-0.6,0.2l-2.3-0.7l-0.6-0.9l0.2-2.5l-1.3-0.7l-0.3-1.6l0.5-0.4l0.8,0.2l0.7,1.2l1,0.8l0.4,1.1l1.7,2.7L234.4,843.4
		L234.4,843.4z M169.5,840l0.1,1.2l-1.1,0.2l-3.3-1l-1.3,0.3l-0.8,1.2l-4.2,2l-1.5,1.9l-0.4,2.1l-0.9,0.6l-1-1.2v-2l-0.3-1.6
		l-1.5-0.7l-0.7-0.7l1.3-2.2l1.1-2.5l2.2-2.9l3.1-1.7l3.3-0.8l2,0.3l0.7,1.2l0.2,1.2l-0.9,0.9l0.2,0.4l1.4,0.9l1.2,1.4L169.5,840
		L169.5,840z M198.3,828.6l1.6,0.8l0.5-0.4l1.2,1.3l1.8,4.7l-0.7,0.9v1.4L202,838l-0.8,0.2l-0.7-3.1l-1.4,1.5l-0.8-0.6l-2.7-6.2
		l0.8-0.8L198.3,828.6L198.3,828.6z M318.8,837.9l-0.2,0.3l-1.9-1.5l-0.6-1.2l0.8-0.9l-0.8-0.8l0.9-1.6l0.4-1v-1.3l0.2-1.2l0.8-0.3
		l0.5,0.9l1.3,1l-1,4.5v1.8L318.8,837.9L318.8,837.9z M268.6,827.6l0.8,0.3l1.4-1.4l1.5-0.1l3.5,3.7l0.7,1.9v1.1l-1.2,1.3l-2.9,1.9
		l-2.5,0.8l-0.9-0.5l-0.1-1.7l-1.1-1.1l-1.6-0.5l-0.7-1l0.4-0.8l-2.7-1.9l0.5-1.4l-0.3-1.9l0.7-0.5l2.3,1.2L268.6,827.6L268.6,827.6
		z M224.9,835.2l-6.6,1.2l-2.5-0.3l-1.8-0.9l-3.8-2.6v-1.4l0.8-1.1l0.2-0.9l-0.6-0.8l-1.5-1l2.2-1.7l2.5-1l5.2-1l4.9-0.5l2.6,0.2
		l2.2,1l1.7,3.1l-0.5,3.6l-2.1,2.9L224.9,835.2L224.9,835.2z M42.4,823.5l1.7,0.6l-0.4,0.8l-1.8,1.3l-1.3,1.5l-1.1,0.5l-0.3-2.3
		l-0.7-1.4l2.1-2.1l0.4-1.2l1.4,0.3l0.9,0.8L42.4,823.5L42.4,823.5z M321.8,824.5l-0.9,0.7h-1.1l-0.9-0.4l-1.1,0.6v-1.9l1.1-1.7
		l1.5-0.7l1.3-0.2l0.4,0.4l-0.9,1.1l0.4,0.9L321.8,824.5L321.8,824.5z M212.7,818.1l-1.1,1.4l-2.1,0.8l-0.7-1.1l-0.9-0.3l-0.1-1.5
		l1.1,0.1l0.5-1l1.9,1.1l0.4-1.6l1.1,0.4L212.7,818.1L212.7,818.1z M266.6,817.5l-0.9,1.1l5,1.6l0.8,1.7l-0.3,0.6l-1.3,0.9l-1.5-0.1
		l-3.4,0.9l-1.2,0.5l-1.9-1.9l-0.1-1.2l1.3-0.8l1.2,0.1l-1-1.5l-0.4-1.5l-2.3-0.6l0.7-0.7l-0.2-0.8l0.5-1.4l1.3-1.5l2.5-0.2l1.6,1.4
		l-2,1.5l1.1,0.8L266.6,817.5L266.6,817.5z M314.9,822.8l-1.3,0.1l-0.8-1.1l-1.5-0.8l-2.3-0.8l-1.5-1.2l-0.7-1.7l-0.8-1.1l-1.3-0.7
		l-1.1-1.4l0.8-1.6l2.7-1.3l2.9-0.4l2,1.5l2.4,4.7l-0.2,2l1.3,0.3l1,0.6l0.7,1.1l-0.3,1.2L314.9,822.8L314.9,822.8z M83.3,813.3
		l1.1,0.8l0.7-0.2l3.6-2.3l0.1,1.7l4.7,7.6l0.3,2.7l-0.5,2.9l-0.8,2.9l-3.1,6.7l-1.3,2l-1.6,1.1l-0.2-0.6l-2.7-2.6l-1.3-0.8v1.2
		l-0.6,3.1l-15.1,8.2l-1.8,0.7l-6.7,0.5l-1.8-0.5l-0.4-1.6l0.9-1.4l1.2-1.2l0.4-1l-0.8-1.2l-4.6-2.8v4l-3.3-3.9l2-6.4l4.5-5.2
		l4.4-0.3l1.4-4.2l1-1.5l1.4-1.6l1.7-1l1.5-0.2l1.2-0.9l0.4-2.7l1.9,2.3l2.5,0.3l2.2-1.5l1-2.9l-1.2-2.4l-4.1-3.3l1.1-1.6l2.5-0.1
		l2.7,1.4l2.2,1.8l1.7,0.9L83.3,813.3z M297.3,806.1l0.5,0.3h1.9l0.5-0.5l1.1,0.4l0.7,1.3l-0.6,0.9l-0.9,0.4l-0.8-1.6l-1,1.9
		l-0.9,0.7l-2.7,0.4l-1.7-2.4l-1-0.3l0.8-1.8l0.8-0.8l1.7-0.8l0.7,0.2l0.7,0.7L297.3,806.1L297.3,806.1z M208.1,801.8l-0.9,0.4
		l-1-2.4l1-0.6l1.4,1.3L208.1,801.8z M280.1,798.2l1,1l0.1,1l-1.9,0.5l-0.7,1.8l-1.1-0.3l-0.6-1.3l-2.3-0.4l-0.4-1.1l0.7-1.4
		l1.8,0.9l0.6-0.7l1.4-0.5L280.1,798.2z M42.5,814.4l-1.7,0.2l-1.9-0.5l-0.5-1l1.9-0.4l1.7-1.5l-0.2-0.6l-3.5-0.8l0.9-1l2.2-0.4h2.3
		l1.8-1.4l0.7-1.9l-0.7-1.9l-1.6-2.6l-1-3.2l1.2-0.9L46,798l1.2,1.2l1.9,1.1l0.1,1.7l0.7,1.4l-0.2,1.9l-0.5,2.2l-0.1,1.8l-0.9,1
		l-2.6,2.2L42.5,814.4L42.5,814.4z M10.8,797.3l0.4,2l-0.3,0.8l-0.9,0.7l-2.4,0.8l-1.3-0.1L5,802.1l-1.1-0.5v-1.1l1.1-0.2v-0.5
		l-3-2.5l0.9-0.3l1.3,0.7l1.6,0.3l3.5-2.1h1.1L10.8,797.3L10.8,797.3z M39.4,807.3l-1.5,0.7l-1.3-1.1l-0.6-6.7l0.6-3.7l1.3-1.7
		l2,4.4l1.7,2.5l1.3,2.7l-0.4,2.3l-1.4,0.4L39.4,807.3L39.4,807.3z M29.7,795.8v2l-1.4-0.6l-0.6-1.1l-0.6,0.3l-1.5-0.3l-0.8-1.7
		l1.9-1.5l1.6,0.3l0.5,1.5l0.5,0.1L29.7,795.8L29.7,795.8z M58.2,790.3l0.2,0.8l2.5-2l1.8,1.9l0.3,2.6l1.8-0.1l0.3,0.7l-3,1.5
		l-0.8,1.1h-1.1l-1.2-0.4l-0.9,0.4l-0.5,0.7l-1.5,0.2l-1.8,1l-1.1-0.4l0.6-4.9l-1.2-0.6l-0.9-0.9l0.6-0.7l1.1-0.6l0.6-0.8l3-2.2
		l0.7-0.1l1.1,0.5l0.1,1.1L58.2,790.3L58.2,790.3z M50.5,781.9l-0.9,0.9l-1.3-1.1l0.5-1.2l1.6-0.9L50.5,781.9L50.5,781.9z
		 M317.9,805.3l-1.8,0.1l-1.8-0.9l-5.6-5.7l-0.7-2.3l1-3.5l0.7-0.9l3-2.3l0.5-1.1l1.2-4.9l-2.4-2.6l0.3-1.5l1.7-0.8l2-0.3l1.7,0.8
		l0.4,1.8l-0.8,2.1l-1.9,1.8l1.6,0.4l1.5,2.3l1.1,2.8l1.3,4.9l0.2,2.8l-0.5,2.7l-1.2,2.7L317.9,805.3L317.9,805.3z M309.1,780.9
		l-1.6,1.3l-1.3-0.7l-1.2-1.8l1-1.2l1.2,1.4L309.1,780.9z M33.2,786.5l-2.4,3.2l-1.1,0.8H27v-0.6l-2.3-1.4l-2.5-1l-0.7,0.2l-1.4-3.2
		l1.1-1.5l4.6-1.9l2.9-3.9l1-0.5l0.6,0.4l1.3,2.5l1.9,1.7l0.5,0.8l0.2,1.5l-0.3,1.5L33.2,786.5L33.2,786.5z M52,768.6l1.5,0.7l0.9,1
		l1.4,0.7l1.9,0.2l1.6,0.3l1,1l0.6,1.1v2.2l0.6,1.7v2.1l-0.9,1.8l-2,0.2l-1.9-1.8l-1.4-2.2h-1.7l-1.4,1l-1.2,0.1l-1.1-0.8l-0.3-1.6
		l-1.4-2.7l-3.2-3.3l-0.6-1.6l1.5,0.4h1.3l1.1-0.6l1.7-0.2L52,768.6L52,768.6z M83.8,770.5l-0.6,0.1l-1.4-3.8l1.2-0.7l0.6-0.9
		l0.7,0.3l1.1,1.1l-0.9,1.1l-0.9,0.5l-0.1,0.8l0.4,0.5L83.8,770.5L83.8,770.5z M34.5,766.5l0.1,4.1l-2.6-0.8l-0.8-0.5l-1.3,1.8h-2.2
		l-2-0.4l-0.8,0.5l-0.4,2.6l-0.8,2.3l-1.4,1.7l-1.9,0.8l-1.8-0.2l-1.4-1.3l-0.8-2l-0.3-2.6l0.5-2.4l1.2-1.7l1.8-1.1l1.9-0.7l2.2,0.8
		l2.8-0.6l5.2-2h1.8l0.6,0.5L34.5,766.5L34.5,766.5z M265.5,762.7l-0.2,2.1l-1.7,1.1l-0.6,1.3l-1-0.3l-0.6-0.6l0.7-0.7l-0.1-1.2
		l0.9-0.8l1.4,0.3L265.5,762.7L265.5,762.7z M58.4,769.7l-1.9,0.5l-1.8-1l-2.1-1.8l-2.6-1l-2-1.1l1.6-1.4l3.9-0.6l2.3-1l1.2-1
		l1.5,0.7l1.6,2.3l-1.1,1.8l0.4,2.6L58.4,769.7L58.4,769.7z M55.9,747.6l0.8,0.4l0.7,1.1l0.2,1.2l-2.1,1.4l0.7,3l-0.3,1.8l-1.2,0.7
		l-1.5-0.1l-1,1.2v2.1l-0.5,1.9l-1.7,0.9l-1.4-0.1l-0.3-1.9l-2.4-2.7l-1.3-1.8l-1.1-2.1l0.5-1.5l2.3-1.2l1.9-0.2l1.5,0.9h1.5
		l0.4-1.2l-0.3-2.3l1.5-1.4L55.9,747.6L55.9,747.6z M305.8,744.1l1.3,0.7l1.5-0.2l0.9,0.5l-3.5,4.1l-1.7,0.3l-1.2-0.4l-1.5-1.5
		l-0.2-0.8l0.9-1.3l1.7-1.3L305.8,744.1L305.8,744.1z M90.3,751.6l0.3,4l-3.1,2.9l-1.7-0.6l1-1.2l0.5-1.1l-0.4-0.7l-5.1-2.8
		l-4.7,0.7l-2,1.1l-2.4,0.3l-1.9-0.6l-0.9-1.3l0.8-1l2.5-0.1l3.3-1.2l1-1.3l0.2-0.8l2-0.6l0.7-1.2l0.1-1.4l-1.3-1.7l-0.5-1.9
		l1.7-0.9l2.8,0.6l2.8,1.5l2,2l-0.2,1.1l-1.4,0.2l-2.4,1.6l-0.3,0.9l0.3,2l1,0.4h2.3L90.3,751.6L90.3,751.6z M47.5,741.4l0.4,2.8
		l-0.5,2.6l-1.2,2.4l-1.9,1.6l-2.3,0.6l-1.3-0.5l-1-0.9l-1.4-0.4l-5.1,1.1l-2,0.1v-1.2l1.6-1.4l2.8-4.6l2.2-2l2.5,0.5h1.3l0.6-1.2
		l0.7-2.5l1.6-0.4l1.7,1.2L47.5,741.4L47.5,741.4z M72.4,740.4L71,741h-2l-0.8-1.8l0.4-1.8l1.2-0.7h2.7l0.9,0.4l0.1,0.8l-0.5,2
		L72.4,740.4z M77.1,730.2l0.6,0.8l1.3,0.7l1.9,4.5l-0.6,1.1l-2.5-0.9l-0.6-2l-1.4-2.6l-1-1.3L77.1,730.2L77.1,730.2z M67.2,730.8
		l-0.3,2.5l-0.8-0.5l-1.2-2.7l0.7-1.7l2.1-1.4l0.2,0.8L67.2,730.8L67.2,730.8z M74.6,728.8l-0.9,0.8l-1-1.5l0.2-1.1l-0.1-2.4l-1-1.2
		l0.7-0.5l1,0.3l1.3,1.1l1.3,1.7l0.1,2.7L74.6,728.8L74.6,728.8z M60.4,724.3l1.1,0.6l0.3,0.9l-0.3,2.7l-2,1.6l-3,0.7l-0.3,1.2
		l0.3,1.2l-0.2,0.5l-2.9,0.7l0.3-1.2l1.1-2.6l0.4-4.1l1.7-0.7l-0.1-1.1l-0.9,0.3l-4.3,0.2l-1.6-0.1l-1.1-0.5l-0.1-0.9l1.7-0.9
		l0.8-1.2l1.5-0.9l0.7-0.8l1.1-0.4l2.8,0.6l1.4,1.4l0.4,2.1L60.4,724.3L60.4,724.3z M56.1,713.1l1.4,0.6l2-0.1l1.4,0.4l1.1,1.7
		l0.1,2.9l-1.4,1.1l-0.9-0.4l-1.4-1.5l-0.7-0.5l-1.6,0.4l-0.2-0.9l-1.4-0.2l-0.2-0.5l1.1-0.8l-1.8-0.4l0.3-0.9l1.2-0.8L56.1,713.1
		L56.1,713.1z M37.4,706.2v3.4l-1.6-1.1l-0.9-1.4l0.1-1.6l1.7-0.6L37.4,706.2L37.4,706.2z M63.3,704.5l1.5,0.9l1.3-0.4l1.6-0.8
		l0.9,0.5l0.4,0.8l1.7-0.3l0.4,1.3l-1.1,1.1l-1.4,0.1l-0.6,0.7v1l1.7,1.8l1.5,0.7l1.6,0.1l0.9,1.3l0.5,1.7l0.8,1.1l0.3,1.5l-0.6,1.9
		l-2.9-0.5l-1.4-2.2v-1.7l0.3-0.9l-1-0.3l-4.1-0.7l-0.9-0.8l-2.1-0.3L61,711l-0.8-1l-1.7-4l1-1.6l2-0.6L63.3,704.5L63.3,704.5z
		 M51.5,712.8l-0.6,1.5l-0.9,0.3l-4.2-1.2l-1.5,0.3l-1.4-1.2l-0.7-0.1l1.3-6.2l0.8-1.8l1.1-0.6l1.9-0.6l1.7-0.9l0.8-1.2l1.2-2.7
		l2.9-1.8l3.2-0.8l2.4,0.7l-4.8,2.8l-1.1,1.6l-0.1,1.9l0.7,2l2.1,3.5l-1.7,0.7l-1.8,1.7L51.5,712.8L51.5,712.8z M57,671.1l-1.4,1.1
		l-1.6-3.1v-0.6l1.2-1.9l1,0.5L57,668l0.3,1.8l0.5,0.9L57,671.1L57,671.1z M39.2,656.6l0.4,1.2l-1.5,1.4l-2.6,0.7l0.4-1l-1.5-1.4
		l1.7-1l-1.3-1l2-1.6l1,0.9l0.3,0.7l0.8,0.3L39.2,656.6L39.2,656.6z M289.3,670.7l-0.8,4.2l3.2,3.8l1.6,5L294,694l2.1,3.9l3.9,2.8
		l3.5,3.7l1.4,4.1l1.7,3.6l9.9,10.7l2.1,5.3v3.6l0.4,0.8l-1-0.3l-6.5,0.1l-2.1-0.4l-0.8-1l-0.4-1.4l-1-1.9l-1.8-1.4l-0.4,1.4
		l0.3,2.4l0.3,1l-1.1,3.5l-0.7,1.3l-1.4,1.7l-6,4.7l-3.3,1.5l-2.4-2l-3-6.1l-2.5-1l-1.7,2.5l-0.9,3.8l0.2,3.3l1.5,3.4l2.4,4.4
		l2.8,3.8l2.6,1.7l1.7,2.3l1.7,0.8l2-1.3l4.9-4.6l3.4-0.5l2.9,0.6l2.7,0.2l2.9-1.6l-0.1,3.8l-0.5,2.7l-1.6,5.5l-1.8,9.6l-1.3,2.2
		l-5.6,1.9l-4.4-2.2l-3.5-0.8l-2.9,6.4l-1-0.6l-1.2,0.6l1.2,2.5l1,2.7l1.1,8.6l-0.7,1.6l-1.6-0.9l-2.6-2.7l-3.8-0.5l-2.8-1.5
		l-1.9-2.9l-0.7-4.3l0.9-4.1l2.1-4l1.5-3.8l-0.7-3.2l-1.3-1.8l-2.5-5.5l-0.7-0.4l-1.8-0.2l-0.8-0.8v-1l0.7-1.9l-2.4-5l-0.4-1.9
		l0.1-1.2l0.7-1.9l0.2-0.9l-0.4-1.1l-0.7-0.9l-0.7-0.2l-0.9,1.2l-2.7,6.9l-1.1,1.5l-6.7,2.3l-3.2,0.4l-6.8-0.1l-2.6,0.7l2.1,1.7
		l4.1,1.8l3.3,1v1.2l-6.7,2.2l-3.4,1.9l-0.6,2.6l1.4,1.1l3-1.2l1.6,0.7l1.1,1.9l-0.4,0.6l-1.2,0.8l2.2,7.6l4.5,4.1l5,3.2l3.4,4.9
		l-1.7-0.3h-2.7l-1.2,0.3l6.8,2.6l0.8,2.1l0.5,4.1l-3.1,2.8l-3.1-0.2l-1.9,0.5l-7.2-4.5l-2.3-0.7l-2.1,0.4l-2.5,1.2l-2.2,1.5
		l-0.9,1.5l2.2,4.6l2.3,0.5l1.3,0.9l6-1.6l3.3,2.8l-7.5,6.9l-2.7,3.8l-2.9-1.3l-4.5,3.4l0.5,3.4l2,2.2h-4.4l-6.5-8.6l-2.2-4.5
		l-5.9-6.5l-1.8,0.4l-6.3,3.3l0.6,2l0.5,0.8l-2.6-0.9l-2.5-0.5l-2.1-1.1l-1.5-2.8l-0.2-2.8l1-1.7l3.5-2.1l1.2-1l3.2-4.2l1.9-4.2
		l1.2-1.4l2.3-1.1l-0.2,3.2l-0.8,3.1l-2.3,5.6l4.7-0.3l3.8-1.4l2.4-3.2l-0.1-5.7l-0.9-2.2l-1.2-1.3l-1-1.5l-0.1-2.9l0.8-1.5l4.6-5.1
		l1.6,0.9l1.1,1.2l0.3,1.5l-0.9,1.8l1,2.5l1.4,1.8l1.8,0.6l2.4-0.9l1-1.4l2.2-4.6l1.2-2l-2.2-3.3l-0.8-3.4l-1.1-1.6l-3,2.3l-3.5,1.5
		l-2.8-2.4l-3.9-6.3l-2.3,3.5l-3.2,8.3l-2.2,2.7l-2.3,0.9l-1.9-0.1l-4-0.8l-1.8,0.6l-1.8,1.6l-2.8,3.8l-1.3,1.1l-5.8,3.4l-3.1,2.4
		l-2,1.2l-2,0.5l-1.2,0.6l-0.2,1.6v2.1l-0.3,2.2l-1,1.6l-1.5,1.7l-0.7,2.1l1.2,2.5l-8.7,8.6l0.2,7.9l-1.4,1.4l-4.3-2.1l-1.3,1.6
		l-0.7,1.9l0.1,2.1l0.9,2.2l-2.1-0.6l-4.4-3.2l-6.1-1.8l-1.4-0.8l-1.2-3.7l0.6-9.7l-0.6-3.8l0.9-2.4l-0.2-3l-1-2.6l-1.8-1.3
		l-1.7,0.5l-1.8,1.6l-1.3,2.1l-0.5,1.8l0.6,2.7l1,2.3l0.1,1.6l-4.9,1.7l0.6,2.3l3.6,4.5l-6.1,3.5l-2.3,2.1l2.4,1l0.5,0.4v1.9
		l-0.5,0.4l-1-0.2l-1.5-0.9l-0.7-0.2l-2.1,0.3l-0.4,0.9l-0.1,1.4l-0.8,1.9l-1.2,0.9l-4.7,1.2l-1.8,1.4l-0.6,1.3l-3.8,12.9l-0.4,1.9
		v2.2l-3.8-0.8l-7.3,2.4l-1.8-0.4l-0.3-2.2l1.5-4.7l-0.3-2.1l-1.4-1.3l-2-0.4l-4.1,0.2v-1.2l1.1-1.8l0.3-3l1.2,0.1l0.7-0.5l2.3-4.1
		l0.4-1.9l-0.6-2l-0.8-0.6l-1.2-0.4l-2.3-0.3l-1.7-0.5l-0.3-1l0.9-1.2v-2.5l0.6-2.4l-0.3-1.2l-2.5,0.8l0.7-4.6l3.1-2.3l4.3-0.9h3.9
		l-0.7-1.5l-1-1.2l-1.2-0.8l-1.5-0.5l2.5-1.7l1.5-2.1l0.1-1.8l-2-1.1l-0.7,0.3l-1.4,1.8l-1,0.7h-1.3l-2.1-1.3h-1l-1,0.8l-0.7,1.4
		l-0.5,1.7l-1.4,0.3l-2.9-0.3l-3.4,0.1l-1.8,0.3l-2.4,0.9l-0.3-3l-1.3-1.8l-3.8-1.9l0.1-0.6l-0.8-1.5l-1-1l-0.9,2l-1.1,0.7l-1.3,0.2
		l-1-0.4l-3.3-3.1l-0.4-0.2l-0.5-1.9l0.9-0.9l0.6-1l0.6,0.9h1.6l1.1-0.9l-0.6-2l-4.2-2.1l-3.3-2.4l-0.3-5.5l1.4-6.2l1.6-4.3l0.2-1.5
		l-0.1-1.7l0.2-1.5l1.3-0.7l2.4,0.5l0.9,0.6l1.1,2.3l4.8,7.3l-1.5,2l-0.5,1.9l0.3,2l0.5,2.1l3.3,9.2l2,1.2l7.8,1.3l3.4,2.3l1.8-0.2
		l1.3-3.3l-1.8,0.3l-0.9-0.5l-3.3-0.7l-1.5-2.4l-2-2l0.5-4.5l-2.1,0.4l-1,2.7l-1.6,0.2l-1-3.6l-0.5-4.8l1.2-2.8l-0.9-3.3l4.3-0.4
		l6.6,1.4l0.9,1.5l-0.4,2.5v1.6l0.3,1.1l1.7,1.1l0.9,1.3l2.1,1.3l2.8,1.2l1.8,1.6l3.8,2.7l0.7-0.8l-3.3-4.4l2-0.4l6.7,3.7l4.5,1.5
		l3.4-0.9l-3.4-0.5l-2.7-1.8l-4.7-4.1l1.1-1.5l-3.4-2.5l-5.2-6.6l-2.9-1.4l-3.9-0.8l-4.7,0.3l-3.2-2.1l-4,1.1l-3.6-1.2l-0.5-1.8
		l2.2-2.9l2.3-0.9l4.7,0.7l6-2.6l7.2,5.3l2.5-0.5l1.4,1.2l0.7,0.3l-0.7-3.7l0.3-3.4l1.9-2.5l3.9-1l7.3,2.2l3.7,0.3l-1.2-2.5l2.5-1.2
		l1.3-0.3l1.6,0.1l-2.3-2.7l-3.6-0.7l-8.2,0.8l0.6-1.9l-0.6-2.6v-2l0.6-1.3l1.5-2.1v-2l-1.2-2.9l-2.2-0.6l-2.4,1.1l-1.7,2.4
		l-0.2,1.6l1.1,3.2l0.2,1.8l-0.3,0.3l-1.9,3.8l-1.8,6.5l-1.6,2.3l-3.1,0.3v-0.5l-1-0.7l0.6-1.1l0.9-2l0.6-1l-2.1-1.1l-1.5,0.6
		l-1.4,1.3l-2.1,0.6l-4.2-0.9l-1.3,0.6l-0.3,2h-2.1l-3.5,1.1l-1.6-0.9l-0.6-2l1.2-1.9l3.2-3.2l1.2-1.8l0.6-1.4l0.4-2.8l-0.5-2.9
		l0.6-1.4l2-1.8l-1.9-1.6l-1.8-3.2l-0.9-3.8l0.3-3.2l2.2-2l3-2.1l0.9-1.7l-3.9-0.9l-1.8,0.3l-1.9,1.9l-2.8,1.2l0.3,1.9l0.7,2.2
		l0.1,1.8l-2.2,2.1l-2.9,0.2l-2.8-0.9l-1.9-1.4l2.1-1.3l-1.4-1l-1.2-1.2l-0.9-1.4l-0.8-1.8l1.8-0.9l1.8,0.1l3.9,0.8l-0.4-4.1
		l4.4-4.4l-1.2-4.1l-4.5-6.2l-2.8-2.6l-3-1l1.2,4.3l-1.1,2.5L79,714l-2.2-3l1.4-2l-4-5.4l-0.6-3.2l2.3-2.7l3.2-0.4l2.9,1.4l1.3,3.1
		l2-1.3l1.1-2.2l1.3-4.4l1.1,2.2l0.2,1.8l-0.4,3.6l-0.8,1.8l-0.1,1.1l0.3,1.2l1.3-0.3l0.5,0.3l0.8,3.7l0.6,0.6l1.9,1.1l1.5,0.6
		l2.7,0.1l1.2,0.7l-0.9,2.2l0.2,2.1l1.1,2l1.7,1.7l4-9l0.4-3.1v-3.5l-0.8-1.2l-3-0.8l-1.2-0.7l-1.1-1l-1.6-4.4l-5.2-6.1l-1.2-2.7
		l0.3-1l1.5-1.8l0.4-1.8l-1.7-1.2l-0.8-1.6l0.3-2.6l-2,0.8l-2.1,0.3l-4.5,0.1l1.7-2.2l2.9-0.7l3.3-0.2l2.9-0.7l-1-0.3l-1-0.9
		l-1.3-0.2l0.8-1.8l3-2.9l0.5-1.5l-1-3.8l0.5-3l1.4-3l3.5-5.3l0.9,0.9l2.3,3l2.8,0.9l1.4-0.1l-0.4-1.4l-3-3.5l3.3-1l15.4-4.3
		l4.5,1.2l-0.9,7.1l-1,5.2l-0.2,5.3l3.9,1.3l4.7-1.2l5.1-1.8l5.3-0.8l2.1-1.6l2.3-1.4l2.7-0.7l2.6-1.3l2.1-1.8l1.3-2.8l-0.3-2
		l-0.1-2l2-1.5l1.4-2.2l-0.1-2.6v-2.7l4-3.5l5.3,0.5l2.7-3.1l2.8,0.2l2.8,1.1l4.8,4l7.5,10.1l4.8-0.1l0.4-2.7l1-2.6l1.6-1.5l1.1-2
		l4.7-0.3l3.2,4.9l-1.4,5.6l0.9,3.6l3.3,3.7l-0.2,6.4l3.8,4l5.9,0.9l4.5-2.7l4.8-0.8h3.3l2.7-0.7l2.4,1.9l2.7,1.6l5.9,0.1l5.7-0.8
		h5.3l4.9-0.7l4.6-5l5.8-3.2l10.1,3.7L289.3,670.7L289.3,670.7z M181.2,674.9l-4.4,1.3l-4.1,1l-5.7-1.5l-3.4,3.2l4.3,9.5l8.6,5.2
		l9.8,1.6l6.2-8.3l-3.2-8.9L181.2,674.9L181.2,674.9z"/>
	<path id="KOR2510" class="st0" d="M163.7,908.4l1.8,2.8l2.4,1.8l7.6,3.1l2.3,2.3l1.6,5.7l1.5,2.2l1.8-1.7l0.4-0.8l1.2,2.5l-0.8,0.8
		l-1.5,0.5l-1.1,1.3l0.1,1.1l1,1.8v1l-0.5,1l-1.7,2.3l-2.8,3.4l-5.4,4.3l-1.7,3.5l-2.3,4.2l-0.2,1.7l-1,2.5l-3.9,0.4l-1.5,0.8
		l-4.2-0.3l-6,4.8l-16,2.9l-5.4,4.6l-6.5,1.4l-7.1-0.7l-8,1.5l-6.6-2l-15.1,0.2l-4.7,2.2l-2.7,5l-2.6,0.5l-2.5-1.2l-3.6-5.9
		l-4.8-1.6l-4.7-4.9l-1.6-5.9l2.8-7.8l2.7-4.7l1.6-1.7l5.5-3.3l4.7-8.2l4.3-1.1l2-4.3l7.4-2.6l16.2-4.6l4-3.5l15.4-1.6l10.5-4.6
		l2.6,0.7l12.7-2l7.5-0.7L163.7,908.4L163.7,908.4z"/>
</g>
<g id="4">
	<path id="KOR2494" class="st0" d="M452.7,328.2l-1.9,2.2l-2.1,1.3l-1.9-0.7l-1.5,0.9l-3.7,3.9l-4,3.4l-2.7,2.5l-3.2,1.1l-2,1.6
		l-1.4,2.5l-4.9,3.5l-3.4,5l-1.7,3.7l-2,3.7l1.1,2l2.1,1.9l-2.3,7.8l-13.3,5.5l-5.6-1.8l-2.4-4.8l-3.7-3.2l-2.7-1.9l-2-2.3l-2.1,2
		l-1.6,2.6l-0.8,3.1l-1.1,3.3l-4.6-0.4l-4.9-1.7l-2.5-1.7l-2.7,1.8l-2.6,3.5l-3.2,0.2l-2.5-1.6l-1.9,3.2l-2,4.3l-1.1,4.1l3.1,3.9
		l2.3,4.4l-11.3-1.7l-6-2.7l-3.4,5.2l-5.6,2.6l-4.9,3.3l-0.4,2.4l0.1,1.8l-0.9,2l-3.5,4.8l-2.3,2.5l-2.3,0.4l-2.4,1.1l1.8,4.5
		l6.2,1.1l7.7,11.3l-2.8,2.8l-1.6,4.5l-0.6,10.7l-1,4.7l1,3.4l1.8,3.1l-2.3,4.5l-3.5,3.1l0.9,9.3l6.4-1.5l3.8,1.3l4.5,3.7l3.1,1.5
		l8.1-2l3.5,2.7l1.8,10.2l-3.3-0.2l-3.8-0.7l-3.9,3.3l0.9,5.3l0.1,2.6l-0.4,3.3l-1.5,1.8l-1.2,2.2l-1.4,5l-2.4,4.8l-4,1.4l-3.8,1.8
		l-2,2.2l-2.1,1.8l-2.3-1.2l-2.3-2.2l-5.8,2.6l-5.1,3.1l-2.6-0.7l-1.4-1.8l-7.1-2.4l-2.4-2.8l-2.7-1.6l-1,1.4l-1.3,0.3l-1.5-1.4
		l-1.3-1.6l-3.6-5.6l-3.3-5.7l-1.3-6.8l0.2-6.7l-1.6-5.9l-4.9-3l-4.7-1.5l-5.1,1.1l-0.4-5.6l0.3-5.4l1.9-7.6l3.5-6.5l1.5-3.3
		l1.6-2.9l2.6-2l0.6-3.4l-2-0.7l-2.2-1l-2.7,2l-2.1,2.8l-1.6-5.2l-0.3-3.5l-1.9-1.1l0.2-2.2l-2.2-0.5l-1.8,2.6l-5.1,1.2l-4.8-1.4
		l0.6-3.4l-0.9-2.2l-1.4-0.7l-1.1-1.2l-0.6-1.5l0.4-1.5l0.7-1.9l0.3-2.1l-0.3-2l-0.5-1.2l0.3-1.5l0.8-1.9l0.1-2.1l-12-0.8l-11.7,2.4
		l0.7-6.1l2-5.7l-0.3-3.3l3.1-6.7l4.4-6.4l3.3-5.8l1.4-1.4l1.5,0.2l1.4-0.4l0.8-1.5l0.3-1.7l0.4-2.2l0.8-2l0.4-2.3L245,377l-1.1-2
		l-1.3-1.2l0.2-4.1l-2.1-1.4l-2.7-5.5l-2.1-1.3l-1.9-1.9l-1.3-3l7.1-2l6.8-3.3l5.2-1.8l1.5-5.8l2.5-2.8l4.1-1.7l1.9-2.5l1.3-3.3
		l2.5-2.6l3.1,0.6l0.9,1.2l3.9-2.8l7.6-14.1l1.7-3.2l2.5-1.9l1.3-1.9l1.1-2.1l16.7-4.6l16.8-2.3l-1.4,9.6l4.9-1.2l4.8,0.4l2.7,1.5
		l1.2-1.1l1.1-1.3l3.2-2.2l-0.9-9.7l3-3.7l8.1-2.7l6,6.4v4.3l2,2.7l5.2-1.2l5.2-3l3.2-2.4l3.8,0.8l3.1-1.7l3.7-2.8l8.8,3.1l9,1.5
		l2.9,0.8L399,302l-4.6,3.3l-2.7,4.2l1.7,1.9l2.2,1.3h1.5l1.4-0.7l4.8-1.6l7.5-0.8l1.6,1.7l-0.3,2.8l3.2,3.3l1.1,2.6l2.9-0.2
		l3.4-0.6l3.8-1.2l3.8-0.1l3.7,2.9l4.2,2.7l4.1,0.8l4.1,0.5l3.2,1.4L452.7,328.2L452.7,328.2z"/>
	<path id="KOR2502" class="st0" d="M97.4,435.5l-0.3,2.2l0.4,1.9l1.2,3.6l2.2,3.3l0.9,3.1l-1.6-0.7l-7,0.4l-2.3-0.4l-0.4-2.9l0.8-1
		l1.2-1.2l0.6-1.7l-3.7,2.4l-1.8-0.9l0.5-2.9l2.8-4l-1-1.2l-2.2,2.6l-0.7-1.8l-1.7,0.9l0.9-4.7l-0.6-7.3l-0.8-4.3l-1.6-5.5l1.4-1.8
		l2.8-2.6l3-1.1l2.1,3.4l0.3,1.2l-0.7,1.5l-1.2,0.9l0.1,1.4l2.7,6l0.4,2l-0.7,1.6l0.8,1.4l1.8,1.1l1.4,2.4h-3.3v1.2l1.1,0.2
		L97.4,435.5L97.4,435.5z M185.5,351.5l7.5,1.5h6.2l13.1-5.6l6.9,3.1l6.1,5.1l7.4,1l1.3,3l1.9,1.9l2.1,1.3l2.7,5.5l2.1,1.4l-0.2,4.1
		l1.3,1.2l1.1,2l0.3,2.2l-0.4,2.3l-0.8,2l-0.4,2.2l-0.3,1.7l-0.8,1.5l-1.4,0.4l-1.5-0.2l-1.4,1.4l-3.3,5.8l-4.4,6.4l-22.5-9
		l-3.7,10.2l0.5,29.9l-2.4,2.3l-1.4,4.1l14.4,2.9l10.8-3l8.4,13.3l2.9,5.6l0.8,14.3l3.3,10.7l7.8-2.1l6.9-5.1l2.3-0.8l4.1-3.3
		l2.3-8.5l2.1-3.4l0.7-4.6l2.1-2.8l2.7-2l2.2,1l2,0.7l-0.6,3.4l-2.6,2l-1.6,2.9l-1.5,3.3l-3.5,6.5l-1.9,7.6l-0.3,5.4l0.4,5.6
		l5.1-1.1l4.7,1.5l4.9,3l1.6,5.9l-0.2,6.7l1.3,6.8l3.3,5.7l3.6,5.6l-3.8,3.8l-3.8,3.4l-4.7,1.3l-4.7,0.2l-3.4,0.8l-9.2-1.2l-0.6-1.6
		l1.1-2.2l-0.9-1.9l-2.1-0.6l-5.2-2.6l-7.1-12.8l-5.1-4.5l-2.6,2.7l-2.2,3.3l-3.3,0.7l-2.2,1l-2.3,0.8l-8.7,1.7l-4.5,1.7l-4.6,0.9
		l-3.4-5.3l1.4-8.6l-5.8-1.2l-16.4,5.2l-8.9,1.9l-7.6,0.8l-7.1,8.8l-3.3,1l-3.2,2.2l-2.7,2.6l-2.9,1.4l-3.5,0.6l-3.4,1.5l-2.4-1.2
		l-0.8-1.3l-0.2-1.8l-0.9-2.5l-1.3-2.1l-2.6-3.5l-1.5-2.4l2.2-1.8l-1-1.2l-4.1-1.6l-3.7-6.2l-2.7-1.2l-2.1,1.2h-1l-0.1-2.2l-3.6-2.3
		l-3.1,0.5l-0.9,3.7l-0.6,1.3l-1-1l0.6-5.8l5.4-2.7l4.7-1.5l6.6,1.9l-2.3-3.9l-1.3-1.5l-1.8-1.3l-1.1-0.2l-1.2,0.7l-0.9-0.5L119,488
		l-1-1.4l3.3-9.1l1.9-4.1l2.4-1.5l-1.8-2.2l-6.7-2l-2.4-1.3l2.4-2.2l7-1.7l1.5-2.1l-1.1-2.6l-2.5-0.6l-5.2-0.1l-1-0.7l-1.9-2.3
		l-1.3-1.1v-1.4h2.1l-2.4-4.4l2.9-1.6l3.2-1l3.1-4.4l6.5-1.8l3.1-1.7h-9.3l-2.2,1.3l-3.4,5.1l-2.5,0.5l-1.6-1.9l-1.4-3.7l-0.9-3.7
		l0.1-2.2l3.3-3.9l1.5-2.4l-0.5-1.1l-3,1.1l-1.4-1.2l-1.3-0.9l-0.7-0.1l-0.7-1.8l0.7-1.7l-0.2-1.8l-0.8-3.4l-0.9-1.4l-0.1-0.9
		l2.2-0.1l3.1-1.5l3.3,0.1l0.3-2.4l0.9-2.1l-1.3-1.7l-1.8-0.4l-2.6-2.5l1.6-2.3l2.3-1.8l-1.5-2.8l-3.8-0.7l-0.8-3.3l1.2-2.4l3.7-0.6
		l-2.1-2.4l-0.7-1.2l-0.5-1.8l-1.4,1.2l-2.2,2.4l-2.5,1.1l-0.5,1.4l0.1,1.4l1.1,1.7l0.2,3.3l-1.2,3.9l0.7,5.2l-1.7,4.4l-1.4,1.8
		l-2.9-2.3l-3.1-0.1l-3-2.1l0.7-10.6l1-3.9l-1.8-0.8l0.5-5l-1.7-2.1l-2.5,0.5l-1.5,2.5l-0.4,3.2l-1.1,2.3l-3.6,0.1l1.5,3l2.9,4.6
		l1,3.3l-1.7,1.5l0.2,1.6l2.7,3.6l-2.5,0.5l-2,1.2l-1.7,1.6l-1.4,2.1v-1.5l-0.5-2.8l-0.6-1.1l2.2-4.8l-4.6-7.7l1.4-3.8l-1.2-5.4
		l-3,1.7l-4.1,5.3l-3.1,1.1l-1.9,0.4l-1.6,0.6l-1.6,0.1l-1.9-1.1l-1.1-2.8l-0.3-1.8l0.8-0.8l6.5,0.1l1.7-1.2l-0.1-2.9l-1.7-3.1
		l-2.4-1.2l-2.5-0.8l-2.1-1.7l-0.8,2.4l-0.5,4.9l-0.9,2.3l-1.8,1.7l-0.6-1.6l0.2-5l-0.3-4.8l0.4-1.3l4.1-5.2l0.8-1.8l0.6-2.5
		l0.5,1.9l1.5,3.4l1.1,1.6l0.8-0.8l1.1,0.1l2.5,0.7l-1.6-2.4l-1.7-3l4.5,1.3l1.9-0.5l1.2-2.3l-4.1-0.3l-2.5-1.1l-0.3-2.5l2.6-4.2
		l-3.5-3l0.2-2.7l2.7-2.3l3.9-1.4l-1,4.9l0.4,1.3l2.1,0.5l4-0.1l1-0.7l1.1-1.8l0.2-4.5l-0.4-5.9l0.8-4.9l3.7-1.2l-0.5,2.8l0.1,4.2
		l0.7,4.4l2,5.2l-1,1.8l-1.5,1.7l-1,1.7v1.8l1,2.9l0.2,0.8l-0.9,1l-3.4,2.3l0.1,1.7l0.5,1.8l0.9,1.1l1.1-0.5l2.7-2.5h2l4.5,3.1
		l-3.3-7.1l-1.1-4.4l1.7-2l2.5,3.3l1.6,1l0.7-2.2l0.7-0.6l1.6-0.7l3.2-0.8v-1.2l-1.3-0.2l-3-1.3v-1.2l3.8-0.9l2.2-3.7l0.6-4.4
		l-1.2-3.3l-1.4-0.5l-4.2-0.1l-2-0.8l-1.5-1.9l-0.5-1.8l0.7-0.6l2.3,1.6l1-3.1l-1.1-1.8l-2.4-0.7l-2.9,0.2l1.2-1.5l1.5-1.1l1.7-0.3
		l1.6,0.9l1.5,1.1l1.3,0.3l0.6-0.6l-0.7-1.5v-1.5l5.9-0.1l2.8,1l1.1,2.6l-0.8,1.6l-1.5,1.7l-0.9,2.3l1,3.2l1.4-1.4l1.8-1l1.5,0.1
		l0.7,1.6l0.2,1.4l0.7,1.3l0.2,1.3l-1.8,2.3l-0.4,1.2v8.8l0.5,2.6l1.2,1.8l1.1,0.7l0.6-1l0.6-4.9l2.9-9.5l0.7-4.6l0.8-1.1l1.9,1.3
		l2.8,3l1.1,2.2l0.8,2l1.2,1.3l2.3,0.1v-1.3l-1.2-1.5l-1.3-4l-1.3-2l-9.7-10.3l-0.6-0.5l0.5-2.2l1.3,0.3l1.7,1.5l2.5,3.2l1.3,1.1
		l1.7,0.8h1.9l1.5-0.9l0.1-1.3l-1-1.3l-2.3-0.6l-3-1.4l-3.3-3.1l-1.4-4.6l-0.4-3.1h2.9l2.5,1.2l2.3,2l6.2,4.3l1.2,1.3l2.4,1.7
		l2.3,1.2l1.6,2.7l-0.7,2.7l-1.6,1.8l0.4,1.5l1.5,3l0.2,1.8l-0.6,3.3l1.8-1.2l0.7-1.5l0.4-1.6l-0.6-4.9l0.6-1.6l2.5-4.5l2.6-1.2h2.5
		l2.7,0.3l3,1.2l3.9,1l2.7,1.8l3.4,3.4l0.2,4.3l-2.5,8.5l1.9-1.2l3-3.9l1.6-0.3l1.1,1.7l0.7,2.9l0.3,5.6l-0.1,1.2l-0.8,2.7l-0.1,1.6
		l0.3,1.6l1.4,2.4l1.3,6.1l-0.4,1.8l-2.6,0.8l0.5,1.7l0.6,1.1l0.9,0.8l1.3,0.6l0.9-4.5l1.6-2.6l0.8-2.8l-1.3-5l3.2,1l3.3,0.4
		l-5.4-6.1l-1.6-3.3l3.2-1.4l2.9-0.5l6.9-2.8L185.5,351.5L185.5,351.5z"/>
	<path id="KOR2503" class="st0" d="M247.4,435.6l-0.4,1.5l0.6,1.5l1.1,1.2l1.4,0.7l0.9,2.2l-0.6,3.4l4.8,1.4l5.1-1.2l1.8-2.6
		l2.2,0.5l-0.2,2.2l1.9,1.1l0.3,3.5l1.6,5.2l-0.7,4.6l-2.1,3.4l-2.3,8.5l-4.1,3.3l-2.3,0.8l-6.9,5.1l-7.8,2.1l-3.3-10.7l-0.8-14.3
		l-2.9-5.6l-8.4-13.3l17.5-4.8L247.4,435.6L247.4,435.6z"/>
	<path id="KOR5129" class="st0" d="M230.6,402.7l-3.1,6.7l0.3,3.3l-2,5.7l-0.7,6.1l11.7-2.4l12,0.8l-0.1,2.1l-0.8,1.9l-0.3,1.5
		l0.5,1.2l0.3,2l-0.3,2.1l-0.7,1.9l-3.6-0.3l-17.5,4.8l-10.8,3l-14.4-2.9l1.4-4.1l2.4-2.3l-0.5-29.9l3.7-10.2L230.6,402.7
		L230.6,402.7z"/>
</g>
</svg>
